<svg xmlns="http://www.w3.org/2000/svg" version="1.1" xmlns:xlink="http://www.w3.org/1999/xlink" xmlns:svgjs="http://svgjs.com/svgjs" x="0" y="0" viewBox="0 0 511 511.65" style="enable-background:new 0 0 512 512" xml:space="preserve" class="">
                                 <g>
                                    <path d="m325.719 391.688-32.84-185.997-31.16-176.55C258.313 9.965 240.027-2.83 220.848.539L29.465 34.348C10.293 37.754-2.504 56.039.863 75.218L32.29 253.095 64.863 437.77c3.407 19.171 21.692 31.968 40.871 28.601l191.383-33.812c19.172-3.407 31.969-21.692 28.602-40.871zM194.629 29.844l16.242-2.91c13.805-2.391 26.957 6.785 29.484 20.566l2.825 16.332a8.838 8.838 0 0 1-1.453 6.602 8.809 8.809 0 0 1-5.696 3.636c-.496.098-1 .157-1.504.18a8.971 8.971 0 0 1-8.738-7.328l-2.824-16.332a7.52 7.52 0 0 0-3.18-4.942 7.671 7.671 0 0 0-5.824-1.324l-16.332 2.91a8.828 8.828 0 0 1-3-17.39zM121.71 93.14l8.121-1.414a8.717 8.717 0 0 1 10.242 7.152 8.838 8.838 0 0 1-1.453 6.601 8.837 8.837 0 0 1-5.7 3.637l-8.12 1.414a9.767 9.767 0 0 1-1.586.086 8.829 8.829 0 0 1-8.559-8.07 8.825 8.825 0 0 1 7.055-9.406zm-1.766 34.515a8.803 8.803 0 0 1-1.453 6.602 8.838 8.838 0 0 1-5.695 3.637 9.842 9.842 0 0 1-1.59.09 8.827 8.827 0 0 1-8.648-7.329l-1.414-8.12a8.838 8.838 0 0 1 3.007-8.306 8.834 8.834 0 0 1 14.383 5.215zm-18.8-56.144a8.831 8.831 0 0 1 10.152 7.238l1.5 8.121a8.939 8.939 0 0 1-7.238 10.242c-.496.075-1 .106-1.5.086a8.725 8.725 0 0 1-8.653-7.238l-1.5-8.211c-.793-4.816 2.434-9.375 7.239-10.238zM80.93 100.289l8.21-1.41c4.723-.676 9.13 2.531 9.942 7.238a8.825 8.825 0 0 1-6.941 10.149l-8.121 1.414a9.7 9.7 0 0 1-1.5.175 8.828 8.828 0 0 1-1.59-17.566zm-33.368-1.941a8.838 8.838 0 0 1-1.453 6.601 8.817 8.817 0 0 1-5.699 3.637 9.436 9.436 0 0 1-1.59.18 8.827 8.827 0 0 1-8.648-7.329l-2.914-16.332c-2.387-13.785 6.8-26.914 20.566-29.394l16.332-2.824a8.751 8.751 0 0 1 6.621 1.425 8.791 8.791 0 0 1 3.621 5.723 8.83 8.83 0 0 1-7.152 10.242l-16.332 2.825a7.524 7.524 0 0 0-4.941 3.175 7.61 7.61 0 0 0-1.325 5.828zm84.391 338.715-16.242 2.914c-13.79 2.312-26.895-6.832-29.484-20.57l-2.825-16.333a8.822 8.822 0 0 1 3.008-8.3 8.835 8.835 0 0 1 8.695-1.547 8.848 8.848 0 0 1 5.688 6.757l2.824 16.332a7.855 7.855 0 0 0 9.004 6.27l16.328-2.914c4.727-.672 9.133 2.535 9.946 7.238s-2.266 9.2-6.942 10.152zm55.262-104.696a8.607 8.607 0 0 1-7.242 3.707 8.933 8.933 0 0 1-5.207-1.676c-5.473-3.796-13.328-15.363-7.68-34.164a19.105 19.105 0 0 0 .266-12.535c-1.59.09-3.266.176-4.946.176a46.855 46.855 0 0 1-7.855-.617 37.082 37.082 0 0 1-11.387 18.539c-8.297 7.855-6.445 13.328-6.355 13.594a8.621 8.621 0 0 1 .195 6.66 8.61 8.61 0 0 1-4.61 4.816 7.59 7.59 0 0 1-3.62.883 9.062 9.062 0 0 1-8.122-5.297c-2.914-6.094-3.882-19.953 10.418-33.457a18.022 18.022 0 0 0 6.446-10.86 57.997 57.997 0 0 1-8.477-4.855 21.848 21.848 0 0 1-2.383-1.851 36.792 36.792 0 0 1-19.066 10.414c-11.125 2.648-12.274 8.3-12.36 8.562a8.66 8.66 0 0 1-8.738 7.86h-.797a9.058 9.058 0 0 1-8.03-9.801c.616-6.707 6.706-19.242 25.772-23.746a18.342 18.342 0 0 0 11.036-6.09 52.98 52.98 0 0 1-6.09-11.211 37.498 37.498 0 0 1-21.715-.617c-10.86-3.266-14.742 1.058-14.918 1.234a8.554 8.554 0 0 1-7.063 3.621 9.21 9.21 0 0 1-5.12-1.59 8.966 8.966 0 0 1-3.442-5.207 9.319 9.319 0 0 1 1.41-7.242c3.797-5.558 15.36-13.328 34.164-7.765a18.571 18.571 0 0 0 12.535.265 55.617 55.617 0 0 1 .442-12.715 38.054 38.054 0 0 1-18.54-11.386c-7.769-8.297-13.327-6.532-13.503-6.446a8.662 8.662 0 0 1-11.566-4.324 8.94 8.94 0 0 1 4.413-11.828c6.09-2.824 19.95-3.797 33.457 10.418a17.64 17.64 0 0 0 10.77 6.441 68.002 68.002 0 0 1 4.945-8.472 21.822 21.822 0 0 1 1.762-2.297 37.805 37.805 0 0 1-10.328-19.156c-2.648-11.032-8.297-12.27-8.563-12.27a8.684 8.684 0 0 1-7.765-9.621 8.903 8.903 0 0 1 9.71-7.945c6.708.53 19.243 6.62 23.833 25.777a17.919 17.919 0 0 0 6.004 10.945 56.986 56.986 0 0 1 11.21-6.004 37.498 37.498 0 0 1 .618-21.714c3.265-10.946-1.059-14.829-1.235-15.008a8.61 8.61 0 0 1-3.535-5.68 8.607 8.607 0 0 1 1.594-6.5 9.035 9.035 0 0 1 12.445-2.031c5.473 3.883 13.243 15.449 7.68 34.25a17.982 17.982 0 0 0-.266 12.535c4.27-.34 8.567-.191 12.801.441a36.45 36.45 0 0 1 11.387-18.539c8.21-7.855 6.445-13.328 6.355-13.593a8.706 8.706 0 0 1-.238-6.68 8.716 8.716 0 0 1 4.566-4.883 9.03 9.03 0 0 1 11.829 4.5c2.824 6.004 3.882 19.953-10.418 33.457a18.337 18.337 0 0 0-6.442 10.77 57.088 57.088 0 0 1 10.856 6.71 36.795 36.795 0 0 1 19.07-10.417c11.031-2.559 12.27-8.207 12.356-8.473a8.643 8.643 0 0 1 3.109-5.942 8.657 8.657 0 0 1 6.426-1.917 8.99 8.99 0 0 1 7.945 9.8c-.531 6.621-6.621 19.157-25.688 23.746-4.292.641-8.207 2.801-11.035 6.09a56.986 56.986 0 0 1 6.004 11.211 37.498 37.498 0 0 1 21.715.617c10.945 3.18 14.828-1.058 15.008-1.234a8.615 8.615 0 0 1 5.664-3.574 8.63 8.63 0 0 1 6.516 1.543 8.987 8.987 0 0 1 3.445 5.21 9.33 9.33 0 0 1-1.414 7.239c-3.883 5.473-15.36 13.328-34.25 7.766a18.717 18.717 0 0 0-12.535-.352 52.523 52.523 0 0 1-.442 12.887 37.01 37.01 0 0 1 18.625 11.3c7.77 8.297 13.328 6.532 13.508 6.446a8.599 8.599 0 0 1 6.691-.278 8.597 8.597 0 0 1 4.872 4.602 9.047 9.047 0 0 1-4.414 11.828 21.37 21.37 0 0 1-8.739 1.68 34.364 34.364 0 0 1-24.804-12.094 17.209 17.209 0 0 0-10.77-6.445 62.64 62.64 0 0 1-4.855 8.387 21.883 21.883 0 0 1-1.856 2.382 37.103 37.103 0 0 1 10.418 19.157c2.648 11.035 8.297 12.27 8.473 12.27a8.665 8.665 0 0 1 7.855 9.535 8.942 8.942 0 0 1-9.004 8.03h-.703c-6.71-.617-19.246-6.707-23.836-25.777a18.363 18.363 0 0 0-6.09-11.031 53.075 53.075 0 0 1-11.21 6.09 37.466 37.466 0 0 1-.622 21.715c-3.175 10.945 1.063 14.742 1.239 14.918 1.918 1.32 3.214 3.363 3.597 5.66s-.183 4.652-1.566 6.523zm46.43 10.594a8.927 8.927 0 0 1-7.239 10.238 8.02 8.02 0 0 1-1.5.09 8.72 8.72 0 0 1-8.648-7.328l-1.504-8.121a8.934 8.934 0 0 1 7.152-10.238 8.803 8.803 0 0 1 6.602 1.453 8.809 8.809 0 0 1 3.637 5.695zm-20.657 29.394-8.12 1.415a9.644 9.644 0 0 1-1.5.175 8.825 8.825 0 0 1-9.204-8.023 8.825 8.825 0 0 1 7.613-9.543l8.211-1.414a8.828 8.828 0 0 1 3 17.39zm20.657 21.54a9.853 9.853 0 0 1-1.586.175 8.825 8.825 0 0 1-8.653-7.324l-1.414-8.121a8.77 8.77 0 0 1 1.43-6.621 8.752 8.752 0 0 1 5.723-3.621 8.838 8.838 0 0 1 6.601 1.453 8.807 8.807 0 0 1 3.637 5.7l1.414 8.12a8.77 8.77 0 0 1-7.152 10.239zm10.417-27.188a8.828 8.828 0 0 1-1.5-17.48l8.122-1.5c4.8-.852 9.386 2.347 10.238 7.152.855 4.8-2.348 9.387-7.149 10.238l-8.12 1.5a9.842 9.842 0 0 1-1.59.09zm34.606 44.488-16.242 2.828a9.95 9.95 0 0 1-1.59.176 8.828 8.828 0 0 1-1.5-17.566l16.328-2.824a7.542 7.542 0 0 0 4.945-3.18 7.623 7.623 0 0 0 1.325-5.828l-2.914-16.242c-.82-4.793 2.367-9.356 7.152-10.239a8.774 8.774 0 0 1 10.238 7.149l2.914 16.332a25.394 25.394 0 0 1-20.656 29.394zm0 0" fill="#ffffff" data-original="#000000" class=""></path>
                                    <path d="M188.273 261.129c0-.09.176-.176.266-.266.36-.347.742-.672 1.145-.972a41.598 41.598 0 0 0 10.859-15.536.284.284 0 0 1 .09-.175c.105-.453.254-.899.441-1.325a39.624 39.624 0 0 0 1.766-19.863 2.159 2.159 0 0 1-.09-.707 40.63 40.63 0 0 0-8.297-18.36 10.908 10.908 0 0 1-1.324-1.675 42.4 42.4 0 0 0-15.89-10.95 5.765 5.765 0 0 1-1.15-.44 40.457 40.457 0 0 0-19.948-1.766 6.88 6.88 0 0 1-1.325.18c-.09 0-.175.085-.265.085a39.91 39.91 0 0 0-17.656 8.297l-.262.266a38.262 38.262 0 0 0-7.504 8.035 39.945 39.945 0 0 0-4.504 8.297c-.18.695-.418 1.371-.707 2.031a40.491 40.491 0 0 0-1.676 19.508.988.988 0 0 1 .09.707 39.784 39.784 0 0 0 8.648 18.715 38.965 38.965 0 0 0 16.243 12.004c-.614-.102-1.23-.16-1.852-.176.625 0 1.25.09 1.852.266h.09c.363.046.718.132 1.058.261.266.09.617.266.973.356a39.56 39.56 0 0 0 19.597 1.765c.176 0 .442-.09.704-.09a41.117 41.117 0 0 0 18.363-8.296.674.674 0 0 1 .265-.176zM331.281 321.332c24.254-19.93 29.48-54.988 12.094-81.125a57.396 57.396 0 0 0-30.547-23.219zm0 0" fill="#ffffff" data-original="#000000" class=""></path>
                                    <path d="m334.633 340.664 3.887 22.156c40.335-2.992 72.335-35.187 75.085-75.539 2.75-40.355-24.585-76.594-64.14-85.031a75.252 75.252 0 0 0-26.309-.266 75.132 75.132 0 0 1 34.961 28.422 79.068 79.068 0 0 1 11.363 60.051 79.04 79.04 0 0 1-34.847 50.207zm0 0" fill="#ffffff" data-original="#000000" class=""></path>
                                    <path d="M483.113 85.281 295.527 50.238a35.356 35.356 0 0 0-12.183-.18l5.035 28.516a25.46 25.46 0 0 1 16.242-2.383l16.066 3c4.801.903 7.961 5.528 7.063 10.329-.902 4.8-5.527 7.964-10.328 7.062l-16.067-3a7.437 7.437 0 0 0-8.742 6l-.261 1.414 15.27 86.598a93.035 93.035 0 0 1 45.108-2.649c47.883 10.07 81.23 53.61 78.473 102.465-2.758 48.852-40.793 88.363-89.508 92.98l1.414 8.208a52.714 52.714 0 0 1-.09 18.98l7.415 1.41a8.827 8.827 0 0 1 7.043 9.453 8.826 8.826 0 0 1-8.63 8.028 9.416 9.416 0 0 1-1.59-.09l-8.034-1.5a10.154 10.154 0 0 1-2.293-.793 52.761 52.761 0 0 1-36.813 25.863L199.22 467.781a34.201 34.201 0 0 0 16.683 8.211l187.676 35.043a35.157 35.157 0 0 0 26.445-5.562 35.174 35.174 0 0 0 14.692-22.684l66.648-356.281a35.305 35.305 0 0 0-5.578-26.469 35.3 35.3 0 0 0-22.672-14.758zm-92.511 331.211a8.779 8.779 0 0 1 5.699 3.684 8.773 8.773 0 0 1 1.363 6.644 8.823 8.823 0 0 1-8.652 7.239 9.045 9.045 0 0 1-1.59-.176l-8.031-1.5a8.845 8.845 0 0 1-6.739-5.723 8.85 8.85 0 0 1 1.59-8.695 8.845 8.845 0 0 1 8.324-2.973zm-29.84-21.539a8.825 8.825 0 0 1 5.652-7.258 8.823 8.823 0 0 1 9.04 1.707 8.823 8.823 0 0 1 2.612 8.817l-1.5 8.035a8.83 8.83 0 0 1-8.652 7.238 9.852 9.852 0 0 1-1.59-.176 8.833 8.833 0 0 1-7.063-10.328zm8.3 51.465a8.83 8.83 0 0 1-8.652 7.152 9.416 9.416 0 0 1-1.59-.09c-2.308-.425-4.351-1.757-5.675-3.695s-1.825-4.324-1.387-6.633l1.504-8.03a8.827 8.827 0 1 1 17.3 3.265zm54.731 18.539c-2.207 11.879-12.547 20.512-24.629 20.566a26.479 26.479 0 0 1-4.68-.441l-16.066-3a8.84 8.84 0 0 1 3.18-17.39l16.066 3.003a7.595 7.595 0 0 0 8.828-6.004l3-16.066a8.833 8.833 0 0 1 5.649-7.262 8.83 8.83 0 0 1 11.652 10.528zm-13.508-335.094a8.846 8.846 0 0 1 10.328-7.062 8.844 8.844 0 0 1 7.063 10.328l-1.5 8.031a8.827 8.827 0 0 1-8.653 7.152 10.456 10.456 0 0 1-1.675-.09c-4.786-.925-7.934-5.53-7.063-10.327zm-13.504 31.426-8.035-1.5c-4.8-.902-7.965-5.527-7.062-10.328a8.846 8.846 0 0 1 10.328-7.063l8.035 1.5a8.827 8.827 0 0 1-1.59 17.477 10.454 10.454 0 0 1-1.676-.086zm21.89 20.04a8.823 8.823 0 0 1-8.648 7.148 10.479 10.479 0 0 1-1.68-.086 8.905 8.905 0 0 1-7.062-10.332l1.5-8.032c.903-4.8 5.528-7.965 10.328-7.062a8.846 8.846 0 0 1 7.063 10.328zm19.95-12.45a10.926 10.926 0 0 1-1.676-.086l-8.03-1.504c-4.806-.898-7.966-5.523-7.063-10.328a8.844 8.844 0 0 1 10.328-7.059l8.03 1.5c4.786.926 7.935 5.532 7.063 10.328a8.828 8.828 0 0 1-8.652 7.149zm46.79-33.277-3.005 16.066a8.823 8.823 0 0 1-8.648 7.238 9.731 9.731 0 0 1-1.68-.18c-4.785-.925-7.933-5.53-7.062-10.328l3.004-16.066a7.464 7.464 0 0 0-6.004-8.738l-16.067-3c-4.8-.903-7.965-5.528-7.062-10.328a8.846 8.846 0 0 1 10.328-7.063l16.066 3a25.192 25.192 0 0 1 16.156 10.527 25.2 25.2 0 0 1 3.973 18.872zm0 0" fill="#ffffff" data-original="#000000" class=""></path>
                                 </g>
                              </svg>